<svg data-v-423bf9ae="" xmlns="http://www.w3.org/2000/svg" viewBox="0 0 577.5844338493652 163" class="iconAbove"><!----><!----><!----><g data-v-423bf9ae="" id="3f4670a2-a4ce-4ab1-b57b-b4a4b4dc0ee7" fill="black" transform="matrix(6.1412484328310715,0,0,6.1412484328310715,-4.17604513162064,85.1903756212547)"><path d="M6.84 12.33L0.68 9.73L0.68 8.44L6.84 5.84L6.84 7.55L2.92 9.11L6.84 10.62L6.84 12.33ZM8.03 10.44L8.03 10.44L8.03 10.44Q8.03 8.30 11.15 8.30L11.15 8.30L11.15 8.30Q11.88 8.30 12.61 8.44L12.61 8.44L12.61 7.90L12.61 7.90Q12.61 6.93 11.22 6.93L11.22 6.93L11.22 6.93Q10.05 6.93 8.61 7.27L8.61 7.27L8.61 5.84L8.61 5.84Q10.05 5.50 11.22 5.50L11.22 5.50L11.22 5.50Q14.42 5.50 14.42 7.86L14.42 7.86L14.42 12.67L13.37 12.67L12.73 12.03L12.73 12.03Q11.79 12.67 10.66 12.67L10.66 12.67L10.66 12.67Q8.03 12.67 8.03 10.44ZM12.61 9.67L12.61 9.67Q11.93 9.53 11.15 9.53L11.15 9.53L11.15 9.53Q9.84 9.53 9.84 10.42L9.84 10.42L9.84 10.42Q9.84 11.38 10.94 11.38L10.94 11.38L10.94 11.38Q11.84 11.38 12.61 10.81L12.61 10.81L12.61 9.67ZM17.94 7.37L17.94 11.01L17.94 11.01Q18.57 11.21 19.39 11.21L19.39 11.21L19.39 11.21Q21.03 11.21 21.03 8.89L21.03 8.89L21.03 8.89Q21.03 7 19.61 7L19.61 7L19.61 7Q18.70 7 17.94 7.37L17.94 7.37ZM16.13 12.38L16.13 2.90L17.94 2.90L17.94 6.04L17.94 6.04Q18.76 5.50 19.76 5.50L19.76 5.50L19.76 5.50Q22.82 5.50 22.82 8.94L22.82 8.94L22.82 8.94Q22.82 12.67 19.31 12.67L19.31 12.67L19.31 12.67Q17.83 12.67 16.13 12.38L16.13 12.38ZM26.00 12.67L24.19 12.67L24.19 2.90L26.00 2.90L26.00 6.41L26.00 6.41Q26.84 5.50 28.16 5.50L28.16 5.50L28.16 5.50Q30.71 5.50 30.71 8.15L30.71 8.15L30.71 12.67L28.90 12.67L28.90 8.15L28.90 8.15Q28.90 6.96 27.72 6.96L27.72 6.96L27.72 6.96Q26.84 6.96 26.00 7.66L26.00 7.66L26.00 12.67ZM32.42 2.90L34.23 2.90L34.23 4.33L32.42 4.33L32.42 2.90ZM32.42 5.50L34.23 5.50L34.23 12.67L32.42 12.67L32.42 5.50ZM37.75 12.67L35.94 12.67L35.94 5.50L37.34 5.50L37.57 6.55L37.57 6.55Q38.60 5.50 39.92 5.50L39.92 5.50L39.92 5.50Q42.47 5.50 42.47 8.15L42.47 8.15L42.47 12.67L40.66 12.67L40.66 8.15L40.66 8.15Q40.66 6.96 39.48 6.96L39.48 6.96L39.48 6.96Q38.60 6.96 37.75 7.66L37.75 7.66L37.75 12.67ZM43.84 10.44L43.84 10.44L43.84 10.44Q43.84 8.30 46.96 8.30L46.96 8.30L46.96 8.30Q47.69 8.30 48.42 8.44L48.42 8.44L48.42 7.90L48.42 7.90Q48.42 6.93 47.03 6.93L47.03 6.93L47.03 6.93Q45.86 6.93 44.42 7.27L44.42 7.27L44.42 5.84L44.42 5.84Q45.86 5.50 47.03 5.50L47.03 5.50L47.03 5.50Q50.23 5.50 50.23 7.86L50.23 7.86L50.23 12.67L49.18 12.67L48.54 12.03L48.54 12.03Q47.60 12.67 46.47 12.67L46.47 12.67L46.47 12.67Q43.84 12.67 43.84 10.44ZM48.42 9.67L48.42 9.67Q47.74 9.53 46.96 9.53L46.96 9.53L46.96 9.53Q45.65 9.53 45.65 10.42L45.65 10.42L45.65 10.42Q45.65 11.38 46.74 11.38L46.74 11.38L46.74 11.38Q47.65 11.38 48.42 10.81L48.42 10.81L48.42 9.67ZM53.83 12.67L51.08 5.50L53.00 5.50L54.74 10.51L56.55 5.50L58.47 5.50L55.55 12.67L53.83 12.67ZM64.21 12.67L62.40 12.67L62.40 5.50L63.80 5.50L64.03 6.41L64.03 6.41Q64.97 5.50 66.02 5.50L66.02 5.50L66.02 6.96L66.02 6.96Q65.01 6.96 64.21 7.80L64.21 7.80L64.21 12.67ZM66.71 10.44L66.71 10.44L66.71 10.44Q66.71 8.30 69.82 8.30L69.82 8.30L69.82 8.30Q70.55 8.30 71.29 8.44L71.29 8.44L71.29 7.90L71.29 7.90Q71.29 6.93 69.90 6.93L69.90 6.93L69.90 6.93Q68.72 6.93 67.29 7.27L67.29 7.27L67.29 5.84L67.29 5.84Q68.72 5.50 69.90 5.50L69.90 5.50L69.90 5.50Q73.10 5.50 73.10 7.86L73.10 7.86L73.10 12.67L72.04 12.67L71.40 12.03L71.40 12.03Q70.46 12.67 69.34 12.67L69.34 12.67L69.34 12.67Q66.71 12.67 66.71 10.44ZM71.29 9.67L71.29 9.67Q70.60 9.53 69.82 9.53L69.82 9.53L69.82 9.53Q68.52 9.53 68.52 10.42L68.52 10.42L68.52 10.42Q68.52 11.38 69.61 11.38L69.61 11.38L69.61 11.38Q70.51 11.38 71.29 10.81L71.29 10.81L71.29 9.67ZM74.81 2.90L76.62 2.90L76.62 4.33L74.81 4.33L74.81 2.90ZM74.81 5.50L76.62 5.50L76.62 12.67L74.81 12.67L74.81 5.50ZM78.16 11.00L79.97 11.00L79.97 12.67L78.16 12.67L78.16 11.00ZM87.73 2.90L82.77 12.67L80.82 12.67L85.78 2.90L87.73 2.90ZM94.73 9.73L88.58 12.33L88.58 10.62L92.50 9.11L88.58 7.55L88.58 5.84L94.73 8.44L94.73 9.73Z"></path></g><!----><g data-v-423bf9ae="" id="97ecdc32-3bef-4b7b-a78d-b0071e9f7881" transform="matrix(1.4186863674369645,0,0,1.4186863674369645,218.56568162815176,-25.645646794641365)" stroke="none" fill="black"><switch><g><path d="M30.5 25c-1.7-1.6-4.5-1.6-6.1.2L3.7 47c-1.6 1.7-1.6 4.3 0 5.9l20.7 21.9c.8.9 2 1.4 3.1 1.4s2.1-.4 3-1.2c1.7-1.6 1.8-4.4.2-6.1L12.7 50l17.9-18.9c1.7-1.8 1.6-4.5-.1-6.1zM96.3 47L75.6 25.1c-1.6-1.7-4.4-1.8-6.1-.2-1.7 1.6-1.8 4.4-.2 6.1l18 19-17.9 18.9c-1.6 1.7-1.6 4.5.2 6.1.8.8 1.9 1.2 3 1.2s2.3-.5 3.1-1.4L96.3 53c1.6-1.7 1.6-4.3 0-6zM58.1 18.4c-2.3-.6-4.7.8-5.3 3.1l-14 54.8c-.6 2.3.8 4.7 3.1 5.3.4.1.7.1 1.1.1 1.9 0 3.7-1.3 4.2-3.2l14-54.8c.6-2.3-.8-4.7-3.1-5.3z"></path></g></switch></g><!----></svg>